<?xml version="1.0" encoding="UTF-8"?>
<svg width="25px" height="25px" viewBox="0 0 25 25" version="1.1" xmlns="http://www.w3.org/2000/svg" xmlns:xlink="http://www.w3.org/1999/xlink">
    <!-- Generator: Sketch 44.1 (41455) - http://www.bohemiancoding.com/sketch -->
    <title>clean</title>
    <desc>Created with Sketch.</desc>
    <defs></defs>
    <g id="效果图" stroke="none" stroke-width="1" fill="none" fill-rule="evenodd">
        <g id="常态_透明板_工具状态" transform="translate(-932.000000, -165.000000)" stroke="#FFFFFF" stroke-width="1.5">
            <g id="清除-copy-2" transform="translate(924.000000, 158.000000)">
                <g id="垃圾桶b" transform="translate(9.000000, 8.000000)">
                    <path d="M5.25,3 L8,3 L8,1 L8,1 C8,0.44771525 8.44771525,-3.42636147e-16 9,-4.4408921e-16 L14,-4.4408921e-16 C14.5522847,-5.45542273e-16 15,0.44771525 15,1 L15,3 L17.75,3 L21.5,3 C22.3284271,3 23,3.67157288 23,4.5 C23,5.32842712 22.3284271,6 21.5,6 L20.5,6 L20.5,21 C20.5,22.1045695 19.6045695,23 18.5,23 L4.5,23 C3.3954305,23 2.5,22.1045695 2.5,21 L2.5,6 L1.5,6 C0.671572875,6 1.01453063e-16,5.32842712 0,4.5 C-1.01453063e-16,3.67157288 0.671572875,3 1.5,3 L1.5,3 L5.25,3 Z" id="Combined-Shape" fill="#000000" stroke-linejoin="round"></path>
                    <path d="M7.75,8 L7.75,19.2350036" id="Path-3" stroke-linecap="round"></path>
                    <path d="M11.75,8 L11.75,19.2350036" id="Path-3-Copy" stroke-linecap="round"></path>
                    <path d="M15.75,8 L15.75,19.2350036" id="Path-3-Copy-2" stroke-linecap="round"></path>
                </g>
            </g>
        </g>
    </g>
</svg>