<?xml version="1.0" standalone="no"?><!DOCTYPE svg PUBLIC "-//W3C//DTD SVG 1.1//EN" "http://www.w3.org/Graphics/SVG/1.1/DTD/svg11.dtd"><svg t="1502855224990" class="icon" style="" viewBox="0 0 1024 1024" version="1.1" xmlns="http://www.w3.org/2000/svg" p-id="17608" xmlns:xlink="http://www.w3.org/1999/xlink" width="200" height="200"><defs><style type="text/css"></style></defs><path d="M619.424 92.144c55.968 0 107.712 10.096 155.216 30.288 47.536 20.224 88.56 47.184 123.024 81.04 34.48 33.856 61.52 72.928 81.04 117.152 19.552 44.272 29.28 90.512 29.28 138.672 0 45.584-9.728 91.104-29.28 136.672-19.536 45.6-50.784 88.528-93.712 128.896-27.36 26.016-57.936 51.424-91.792 76.144-33.84 24.736-68.336 46.88-103.472 66.416-35.168 19.52-70.32 35.136-105.472 46.864-35.136 11.696-67.68 17.584-97.632 17.584-42.976 0-78.112-14-105.456-41.968-27.344-28.032-40.992-77.136-40.992-147.456 0-11.712 0.64-24.736 1.936-39.072s1.968-28.64 1.968-42.96c0-24.752-5.856-43.296-17.584-55.632-11.696-12.384-25.376-18.56-40.992-18.56-20.848 0-38.72 9.44-53.696 28.336-14.976 18.88-29.632 39.376-43.952 61.488-14.32 22.176-28.96 42.672-43.92 61.536-14.976 18.864-32.896 28.336-53.712 28.336-16.928 0-33.52-13.68-49.808-41.024C24.144 697.552 16 652.624 16 590.128c0-70.304 16.944-135.696 50.768-196.24 33.84-60.528 78.768-112.928 134.736-157.184 56-44.24 120.4-79.072 193.328-104.464C467.712 106.784 542.576 93.44 619.424 92.144zM234.688 506.144c18.224 0 33.52-6.512 45.888-19.536 12.368-12.992 18.544-28 18.544-44.928 0-18.208-6.176-33.504-18.544-45.888-12.368-12.368-27.664-18.528-45.888-18.528-16.944 0-31.568 6.16-43.952 18.528-12.368 12.384-18.544 27.664-18.544 45.888 0 16.944 6.208 31.936 18.544 44.928C203.152 499.632 217.776 506.144 234.688 506.144zM390.912 377.264c22.112 0 41.344-8.128 57.616-24.416 16.272-16.288 24.4-35.44 24.4-57.6 0-23.44-8.144-42.976-24.4-58.592-16.288-15.648-35.488-23.44-57.616-23.44-23.44 0-42.96 7.792-58.592 23.44-15.616 15.616-23.44 35.152-23.44 58.592 0 22.16 7.808 41.344 23.44 57.6C347.968 369.136 367.488 377.264 390.912 377.264zM523.712 830.304c22.144 0 41.008-6.848 56.64-20.496 15.616-13.664 23.424-31.584 23.424-53.712 0-22.128-7.792-40.336-23.424-54.672-15.648-14.336-34.496-21.472-56.64-21.472-20.816 0-38.72 7.12-53.696 21.472-14.976 14.336-22.464 32.576-22.464 54.672 0 22.144 7.488 40.016 22.464 53.712C484.992 823.488 502.896 830.304 523.712 830.304zM611.6 306.96c20.832 0 36.128-6.496 45.856-19.536 9.76-13.008 14.688-27.984 14.688-44.928 0-15.616-4.928-30.288-14.688-43.936-9.728-13.664-25.024-20.496-45.856-20.496-16.944 0-32.24 6.176-45.888 18.544-13.664 12.4-20.496 27.664-20.496 45.888 0 18.272 6.832 33.552 20.496 45.888C579.36 300.816 594.688 306.96 611.6 306.96zM795.136 410.432c18.224 0 34.16-6.832 47.856-20.496 13.664-13.664 20.496-30.288 20.496-49.792 0-18.24-6.848-34.176-20.496-47.824-13.696-13.664-29.648-20.496-47.856-20.496-19.552 0-36.128 6.832-49.776 20.496-13.696 13.664-20.528 29.632-20.528 47.824 0 19.552 6.832 36.128 20.528 49.792C759.04 403.616 775.648 410.432 795.136 410.432z" p-id="17609"></path></svg>