<?xml version="1.0" standalone="no"?><!DOCTYPE svg PUBLIC "-//W3C//DTD SVG 1.1//EN" "http://www.w3.org/Graphics/SVG/1.1/DTD/svg11.dtd"><svg t="1502692790078" class="icon" style="" viewBox="0 0 1024 1024" version="1.1" xmlns="http://www.w3.org/2000/svg" p-id="1450" xmlns:xlink="http://www.w3.org/1999/xlink" width="200" height="200"><defs><style type="text/css"></style></defs><path d="M438.205297 460.231963c0 23.728424 0 386.758578-3.559059 417.60512-1.186012 17.794271-15.424294 32.032554-39.150672 32.032554L327.871399 909.869636c-4.745071 0-8.30413 2.373047-8.30413 9.490142l0 27.287483c0 8.30413 2.373047 10.677177 9.490142 10.677177 16.60826 0 66.438155-3.559059 187.447183-3.559059 128.128169 0 166.091806 3.559059 177.954995 3.559059 9.493212 0 11.865235-4.745071 11.865235-11.863189l0-24.914436c0-5.931083-2.373047-10.677177-7.118118-10.677177l-68.810179 0c-28.473495 0-40.336684-23.728424-40.336684-113.891933L590.059843 163.639964l33.218566 0c42.709731 0 149.4815 2.373047 182.700065 21.35333 33.218566 23.728424 77.114308 99.656721 93.724615 132.875287 3.559059 7.118118 5.931083 10.677177 10.677177 9.490142l23.728424-8.30413c3.559059-1.186012 5.931083-3.559059 4.745071-10.679223-9.493212-56.944943-33.218566-204.055442-35.591613-225.409796-2.373047-14.238282-4.745071-18.983353-11.865235-18.983353-7.118118 0-11.863189 4.745071-21.35333 11.863189-17.797341 13.051247-62.879096 29.659507-85.418438 30.846542-54.574966 2.373047-104.401792 7.118118-234.901984 7.118118l-64.065108 0c-116.26498 0-166.091806-4.745071-230.156914-7.118118-33.218566-1.186012-56.944943-7.118118-80.673367-30.846542-7.118118-7.118118-11.863189-11.863189-18.981307-11.863189-4.747117 0-11.865235 4.745071-14.238282 21.355377l-56.944943 218.291678c-1.186012 5.931083 0 9.490142 4.745071 11.865235l23.726378 8.30413c5.934153 2.373047 9.493212-2.373047 13.051247-8.30413 22.539342-40.33873 67.624167-118.640074 105.587803-135.248334 49.826825-16.60826 135.245264-16.60826 173.209924-16.60826l33.218566 0L438.202227 460.231963z" p-id="1451"></path></svg>