<?xml version="1.0" encoding="UTF-8"?>
<svg width="25px" height="25px" viewBox="0 0 25 25" version="1.1" xmlns="http://www.w3.org/2000/svg" xmlns:xlink="http://www.w3.org/1999/xlink">
    <!-- Generator: Sketch 44.1 (41455) - http://www.bohemiancoding.com/sketch -->
    <title>palette</title>
    <desc>Created with Sketch.</desc>
    <defs></defs>
    <g id="效果图" stroke="none" stroke-width="1" fill="none" fill-rule="evenodd">
        <g id="常态_透明板_工具状态" transform="translate(-892.000000, -165.000000)">
            <g id="颜色板-copy-2" transform="translate(884.000000, 158.000000)">
                <g id="painter-palette" transform="translate(10.000000, 9.000000)">
                    <path d="M10.5,0 C4.66666667,0 0,4.66666667 0,10.5 C0,16.3333333 4.66666667,21 10.5,21 C11.4333333,21 12.25,20.1833333 12.25,19.25 C12.25,18.7833333 12.1333333,18.4333333 11.7833333,18.0833333 C11.55,17.7333333 11.3166667,17.3833333 11.3166667,16.9166667 C11.3166667,15.9833333 12.1333791,15.1666667 13.0666667,15.1666667 L15.1666667,15.1666667 C18.4333333,15.1666667 21,12.6 21,9.33333333 C21,4.2 16.3333333,0 10.5,0 Z" id="Shape" stroke="#FFFFFF" stroke-width="1.5" fill="#000000" fill-rule="nonzero"></path>
                    <path d="M4.83,9.66 C4.046,9.66 3.36,8.974 3.36,8.19 C3.36,7.406 4.046,6.72 4.83,6.72 C5.614,6.72 6.3,7.406 6.3,8.19 C6.3,8.974 5.614,9.66 4.83,9.66 Z" id="Path" fill="#FFFFFF"></path>
                    <path d="M5.67,14.7 C4.886,14.7 4.2,14.014 4.2,13.23 C4.2,12.446 4.886,11.76 5.67,11.76 C6.454,11.76 7.14,12.446 7.14,13.23 C7.14,14.014 6.454,14.7 5.67,14.7 Z" id="Path-Copy" fill="#FFFFFF"></path>
                    <path d="M8.19,6.3 C7.406,6.3 6.72,5.614 6.72,4.83 C6.72,4.046 7.406,3.36 8.19,3.36 C8.974,3.36 9.66,4.046 9.66,4.83 C9.66,5.614 8.974,6.3 8.19,6.3 Z" id="Path" fill="#FFFFFF"></path>
                    <path d="M13.23,6.3 C12.446,6.3 11.76,5.614 11.76,4.83 C11.76,4.046 12.446,3.36 13.23,3.36 C14.014,3.36 14.7,4.046 14.7,4.83 C14.7,5.614 14.014,6.3 13.23,6.3 Z" id="Path" fill="#FFFFFF"></path>
                    <path d="M16.6366667,9.94 C15.8526667,9.94 15.1666667,9.254 15.1666667,8.47 C15.1666667,7.686 15.8526667,7 16.6366667,7 C17.4206667,7 18.1066667,7.686 18.1066667,8.47 C18.1066667,9.254 17.4206667,9.94 16.6366667,9.94 Z" id="Path" fill="#FFFFFF"></path>
                </g>
            </g>
        </g>
    </g>
</svg>