<?xml version="1.0" encoding="iso-8859-1"?>
<!-- Generator: Adobe Illustrator 19.0.0, SVG Export Plug-In . SVG Version: 6.00 Build 0)  -->
<svg xmlns="http://www.w3.org/2000/svg" xmlns:xlink="http://www.w3.org/1999/xlink" version="1.1" id="Layer_1" x="0px" y="0px" viewBox="0 0 512.001 512.001" style="enable-background:new 0 0 512.001 512.001;" xml:space="preserve">
<g>
	<g>
		<path d="M343.937,263.593c-0.193-0.949-0.475-1.885-0.845-2.773c-0.371-0.905-0.83-1.765-1.364-2.565    c-0.534-0.816-1.157-1.572-1.839-2.254s-1.438-1.305-2.254-1.839c-0.801-0.534-1.661-0.994-2.565-1.364    c-0.89-0.371-1.824-0.652-2.773-0.845c-1.913-0.385-3.885-0.385-5.798,0c-0.934,0.193-1.868,0.475-2.773,0.845    c-0.89,0.371-1.75,0.83-2.551,1.364c-0.816,0.534-1.572,1.157-2.254,1.839c-0.697,0.682-1.305,1.438-1.854,2.254    c-0.534,0.801-0.994,1.661-1.364,2.565c-0.371,0.89-0.652,1.824-0.845,2.773c-0.193,0.949-0.282,1.928-0.282,2.892    s0.089,1.943,0.282,2.906c0.193,0.934,0.475,1.868,0.845,2.773c0.371,0.89,0.83,1.75,1.364,2.551    c0.549,0.816,1.157,1.572,1.854,2.254c0.682,0.682,1.438,1.305,2.254,1.854c0.801,0.534,1.661,0.979,2.551,1.349    c0.905,0.371,1.839,0.667,2.773,0.86c0.964,0.178,1.943,0.282,2.906,0.282s1.943-0.104,2.892-0.282    c0.949-0.193,1.883-0.489,2.773-0.86c0.905-0.371,1.765-0.816,2.565-1.349c0.816-0.549,1.572-1.171,2.254-1.854    c0.682-0.682,1.305-1.438,1.839-2.254c0.534-0.801,0.994-1.661,1.364-2.551c0.371-0.905,0.652-1.839,0.845-2.773    c0.193-0.964,0.297-1.943,0.297-2.906C344.233,265.521,344.129,264.542,343.937,263.593z"/>
	</g>
</g>
<g>
	<g>
		<path d="M507.657,172.116l-31.458-31.458l10.486-10.486c5.791-5.791,5.791-15.18,0-20.973l-10.486-10.486l31.457-31.457    c2.78-2.78,4.343-6.553,4.343-10.486c0-3.933-1.563-7.705-4.343-10.486L465.714,4.344C462.933,1.563,459.161,0,455.228,0    c-3.933,0-7.705,1.563-10.486,4.343l-31.457,31.457L402.8,25.315c-5.791-5.791-15.18-5.791-20.973,0L130.172,276.972    L88.23,318.914l-62.913,62.913c-0.107,0.107-0.196,0.222-0.298,0.331c-0.128,0.136-0.252,0.274-0.375,0.415    c-0.314,0.359-0.608,0.73-0.881,1.112c-0.073,0.101-0.15,0.196-0.219,0.298c-0.347,0.51-0.661,1.035-0.939,1.576    c-0.031,0.061-0.056,0.125-0.086,0.185c-0.242,0.489-0.452,0.989-0.636,1.498c-0.047,0.132-0.095,0.264-0.139,0.399    c-0.184,0.556-0.344,1.12-0.46,1.691c-0.004,0.025-0.015,0.047-0.019,0.073l-0.009,0.046c-0.003,0.018-0.007,0.036-0.01,0.053    L0.288,494.262c-0.973,4.862,0.549,9.888,4.054,13.395C7.151,510.466,10.936,512,14.828,512c0.967,0,1.941-0.095,2.908-0.288    l104.755-20.952c0.019-0.004,0.04-0.009,0.059-0.012l0.043-0.009c0.024-0.004,0.044-0.013,0.068-0.018    c0.574-0.117,1.139-0.277,1.698-0.463c0.132-0.044,0.262-0.09,0.394-0.138c0.51-0.185,1.013-0.396,1.504-0.639    c0.059-0.03,0.122-0.053,0.181-0.085c0.541-0.277,1.068-0.592,1.579-0.939c0.102-0.07,0.196-0.147,0.297-0.218    c0.383-0.274,0.753-0.568,1.114-0.882c0.141-0.123,0.279-0.246,0.414-0.374c0.108-0.102,0.224-0.193,0.331-0.3l62.913-62.913    l41.942-41.942l73.4-73.4c5.791-5.791,5.791-15.18,0-20.973c-5.791-5.789-15.18-5.789-20.973,0l-62.913,62.913l-62.913-62.913    L392.315,56.773l10.478,10.478c0.003,0.003,0.004,0.004,0.007,0.007l41.942,41.942c0.003,0.003,0.004,0.004,0.007,0.007    l10.478,10.478L351.071,223.844c-5.791,5.791-5.791,15.18,0,20.971s15.18,5.791,20.973,0l83.186-83.186l20.971,20.971L402.8,256    c-5.791,5.791-5.791,15.18,0,20.973c2.896,2.896,6.691,4.343,10.486,4.343c3.795,0,7.591-1.447,10.486-4.343l83.886-83.886    c2.78-2.78,4.343-6.553,4.343-10.486C512.001,178.669,510.438,174.896,507.657,172.116z M33.734,478.268l11.175-55.876l44.7,44.7    L33.734,478.268z M119.687,455.228l-62.913-62.913l41.942-41.942l62.913,62.913L119.687,455.228z M203.571,371.343L182.6,392.314    l-62.913-62.913l20.971-20.971L203.571,371.343z M455.23,77.744l-20.971-20.971l20.97-20.973l20.973,20.973L455.23,77.744z"/>
	</g>
</g>
<g>
</g>
<g>
</g>
<g>
</g>
<g>
</g>
<g>
</g>
<g>
</g>
<g>
</g>
<g>
</g>
<g>
</g>
<g>
</g>
<g>
</g>
<g>
</g>
<g>
</g>
<g>
</g>
<g>
</g>
</svg>
