<?xml version="1.0" standalone="no"?><!DOCTYPE svg PUBLIC "-//W3C//DTD SVG 1.1//EN" "http://www.w3.org/Graphics/SVG/1.1/DTD/svg11.dtd"><svg t="1502854739975" class="icon" style="" viewBox="0 0 1024 1024" version="1.1" xmlns="http://www.w3.org/2000/svg" p-id="4633" xmlns:xlink="http://www.w3.org/1999/xlink" width="200" height="200"><defs><style type="text/css"></style></defs><path d="M856.572268 129.044028 167.740864 129.044028c-56.968479 0-103.326297 46.357817-103.326297 103.32732l0 559.812959c0 56.96234 46.357817 103.328343 103.326297 103.328343l688.832428 0c56.963363 0 103.328343-46.366004 103.328343-103.328343L959.901635 232.370325C959.898565 175.400822 913.535631 129.044028 856.572268 129.044028zM832.711837 831.766814 191.601294 831.766814c-35.040051 0-63.444984-28.405957-63.444984-63.444984L128.15631 256.229732c0-35.040051 28.404933-63.444984 63.444984-63.444984l641.10952 0c35.039028 0 63.444984 28.404933 63.444984 63.444984l0 512.092098 0.002047 0C896.157845 803.360857 867.750865 831.766814 832.711837 831.766814z" p-id="4634"></path></svg>