<?xml version="1.0" standalone="no"?><!DOCTYPE svg PUBLIC "-//W3C//DTD SVG 1.1//EN" "http://www.w3.org/Graphics/SVG/1.1/DTD/svg11.dtd"><svg t="1502854994906" class="icon" style="" viewBox="0 0 1025 1024" version="1.1" xmlns="http://www.w3.org/2000/svg" p-id="10959" xmlns:xlink="http://www.w3.org/1999/xlink" width="200.1953125" height="200"><defs><style type="text/css"></style></defs><path d="M986.52 128 896.024 37.488C871.024 12.504 838.24 0 805.496 0s-65.504 12.504-90.504 37.488l-549.52 549.512C140.504 612 64.032 708.688 64 741.44L0 1024l282.504-64c0 0 129.504-76.504 154.504-101.504l549.52-549.496C1036.496 259 1036.496 177.944 986.52 128zM84.84 939.184l41.56-183.624c0.592-2.624 1.032-5.312 1.28-7.936 0.128-0.376 0.472-0.936 0.624-1.312l144.72 144.752c-4.84 2.936-9.72 5.872-14.504 8.752L84.84 939.184zM391.872 813.128c-7.248 6.872-32.312 23.816-62.936 43.312L163.128 690.624c17-23.312 35.936-46.752 47.592-58.376l413.776-413.744 181 181L391.872 813.128zM941.272 263.752l-90.528 90.504L669.744 173.256l90.528-90.504C772.336 70.632 788.4 64 805.496 64s33.184 6.688 45.28 18.752l90.504 90.504c12.096 12.064 18.72 28.128 18.72 45.248C959.992 235.568 953.336 251.688 941.272 263.752z" p-id="10960"></path></svg>