<?xml version="1.0" encoding="UTF-8"?>
<svg width="25px" height="25px" viewBox="0 0 25 25" version="1.1" xmlns="http://www.w3.org/2000/svg" xmlns:xlink="http://www.w3.org/1999/xlink">
    <!-- Generator: Sketch 44.1 (41455) - http://www.bohemiancoding.com/sketch -->
    <title>choose</title>
    <desc>Created with Sketch.</desc>
    <defs></defs>
    <g id="效果图" stroke="none" stroke-width="1" fill="none" fill-rule="evenodd" stroke-linejoin="round">
        <g id="常态_透明板_工具状态" transform="translate(-972.000000, -165.000000)" stroke="#FFFFFF" stroke-width="1.5" fill="#000000">
            <g id="选择-copy-2" transform="translate(964.000000, 158.000000)">
                <path d="M22.2188986,20.5256069 L26.2018562,20.5256069 C26.3476203,20.5256069 26.4916222,20.4937406 26.6237767,20.4322397 C27.1244962,20.1992195 27.3415093,19.6044059 27.108489,19.1036864 L27.108489,19.1036864 L21.443077,6.9297151 L21.443077,6.9297151 C21.3436591,6.71608359 21.1719962,6.5444207 20.9583647,6.44500281 C20.4576452,6.21198254 19.8628316,6.42899562 19.6298114,6.9297151 L19.6298114,6.9297151 L13.9643994,19.1036864 C13.9028985,19.2358409 13.8710322,19.3798428 13.8710322,19.5256069 C13.8710322,20.0778917 14.3187474,20.5256069 14.8710322,20.5256069 L19.0188985,20.5256069 L19.0188985,31.121731 C19.0188985,32.0053866 19.7352429,32.721731 20.6188985,32.721731 C21.5025541,32.721731 22.2188986,32.0053866 22.2188986,31.121731 L22.2188986,20.5256069 Z" id="Combined-Shape" transform="translate(20.536564, 19.536564) rotate(-315.000000) translate(-20.536564, -19.536564) "></path>
            </g>
        </g>
    </g>
</svg>