<?xml version="1.0" encoding="UTF-8"?>
<svg width="25px" height="25px" viewBox="0 0 25 25" version="1.1" xmlns="http://www.w3.org/2000/svg" xmlns:xlink="http://www.w3.org/1999/xlink">
    <!-- Generator: Sketch 44.1 (41455) - http://www.bohemiancoding.com/sketch -->
    <title>text</title>
    <desc>Created with Sketch.</desc>
    <defs></defs>
    <g id="效果图" stroke="none" stroke-width="1" fill="none" fill-rule="evenodd" stroke-linejoin="round">
        <g id="常态_透明板_工具状态" transform="translate(-772.000000, -165.000000)" stroke="#FFFFFF" stroke-width="1.5" fill="#000000">
            <g id="输入文字-copy-2" transform="translate(764.000000, 158.000000)">
                <g id="text" transform="translate(9.000000, 9.000000)">
                    <path d="M13,3 L21.5,3 C22.3284271,3 23,2.32842712 23,1.5 L23,1.5 C23,0.671572875 22.3284271,-1.52179594e-16 21.5,0 L1.5,0 L1.5,0 C0.671572875,1.52179594e-16 -1.01453063e-16,0.671572875 0,1.5 L0,1.5 L0,1.5 C1.01453063e-16,2.32842712 0.671572875,3 1.5,3 L10,3 L10,20.5 C10,21.3284271 10.6715729,22 11.5,22 C12.3284271,22 13,21.3284271 13,20.5 L13,3 Z" id="Combined-Shape"></path>
                </g>
            </g>
        </g>
    </g>
</svg>