<?xml version="1.0" standalone="no"?><!DOCTYPE svg PUBLIC "-//W3C//DTD SVG 1.1//EN" "http://www.w3.org/Graphics/SVG/1.1/DTD/svg11.dtd"><svg t="1502855043035" class="icon" style="" viewBox="0 0 1024 1024" version="1.1" xmlns="http://www.w3.org/2000/svg" p-id="11649" xmlns:xlink="http://www.w3.org/1999/xlink" width="200" height="200"><defs><style type="text/css"></style></defs><path d="M829.996186 595.998572q17.699307 17.114206 7.972002 39.421184-9.727305 22.818942-33.716449 22.818942l-218.242697 0 114.826084 271.998857q5.704735 14.261838 0 28.011713t-19.45461 19.966574l-101.149346 42.858653q-14.261838 5.704735-28.011713 0t-19.966574-19.45461l-109.121348-258.248982-178.309549 178.309549q-10.82437 10.82437-25.744447 10.82437-6.874938 0-13.676737-2.852368-22.818942-9.727305-22.818942-33.716449l0-859.367188q0-23.989144 22.818942-33.716449 6.874938-2.852368 13.676737-2.852368 15.432041 0 25.744447 10.82437z" p-id="11650"></path></svg>