<?xml version="1.0" standalone="no"?><!DOCTYPE svg PUBLIC "-//W3C//DTD SVG 1.1//EN" "http://www.w3.org/Graphics/SVG/1.1/DTD/svg11.dtd"><svg t="1502692900819" class="icon" style="" viewBox="0 0 1025 1024" version="1.1" xmlns="http://www.w3.org/2000/svg" p-id="1076" xmlns:xlink="http://www.w3.org/1999/xlink" width="200.1953125" height="200"><defs><style type="text/css"></style></defs><path d="M18.558624 0.02048c-10.629097 0.860158-18.759639 9.830379-18.55484 20.479955L0.003785 1003.517812c-0.16384 11.141096 8.744941 20.316116 19.886037 20.479955C20.094621 1023.997768 20.278941 1023.997768 20.48374 1023.997768l983.037857 0c11.141096 0.16384 20.316116-8.744941 20.479955-19.886037 0-0.2048 0-0.389119 0-0.593919L1024.001553 20.500435c0.16384-11.141096-8.744941-20.316116-19.886037-20.479955-0.2048 0-0.389119 0-0.593919 0L658.557229 0.02048 20.48374 0.02048C19.848862 0 19.193503 0 18.558624 0.02048zM40.963696 40.980391l617.593534 0L983.041642 40.980391 983.041642 983.037857 40.963696 983.037857 40.963696 40.980391z" p-id="1077"></path></svg>