<?xml version="1.0" standalone="no"?><!DOCTYPE svg PUBLIC "-//W3C//DTD SVG 1.1//EN" "http://www.w3.org/Graphics/SVG/1.1/DTD/svg11.dtd"><svg t="1502692958523" class="icon" style="" viewBox="0 0 1024 1024" version="1.1" xmlns="http://www.w3.org/2000/svg" p-id="1730" xmlns:xlink="http://www.w3.org/1999/xlink" width="200" height="200"><defs><style type="text/css"></style></defs><path d="M510.897899 955.503976c-59.94323 0-118.104885-11.744485-172.868139-34.907021-52.884464-22.36845-100.376105-54.385655-141.153834-95.164406-40.777729-40.778752-72.795956-88.269369-95.164406-141.153834-23.162536-54.763255-34.907021-112.924909-34.907021-172.867116 0-59.94323 11.744485-118.104885 34.907021-172.868139 22.36845-52.884464 54.386678-100.376105 95.164406-141.153834 40.778752-40.778752 88.269369-72.795956 141.153834-95.16543 54.763255-23.162536 112.924909-34.907021 172.868139-34.907021s118.104885 11.744485 172.86814 34.907021c52.885488 22.36845 100.376105 54.386678 141.153833 95.16543 40.778752 40.777729 72.795956 88.269369 95.164407 141.153834 23.163559 54.763255 34.907021 112.924909 34.907021 172.868139 0 59.94323-11.744485 118.104885-34.907021 172.867116-22.36845 52.885488-54.385655 100.376105-95.164407 141.153834s-88.269369 72.795956-141.153833 95.164406c-54.763255 23.163559-112.924909 34.907021-172.86814 34.907021z m0-847.254553c-222.304062 0-403.161153 180.857091-403.161153 403.161153 0 222.304062 180.857091 403.161153 403.161153 403.161152S914.059052 733.714637 914.059052 511.410576c0-222.304062-180.857091-403.161153-403.161153-403.161153z" fill="#060001" p-id="1731"></path></svg>