<?xml version="1.0" standalone="no"?><!DOCTYPE svg PUBLIC "-//W3C//DTD SVG 1.1//EN" "http://www.w3.org/Graphics/SVG/1.1/DTD/svg11.dtd"><svg t="1503569634087" class="icon" style="" viewBox="0 0 1024 1024" version="1.1" xmlns="http://www.w3.org/2000/svg" p-id="2374" xmlns:xlink="http://www.w3.org/1999/xlink" width="200" height="200"><defs><style type="text/css"></style></defs><path d="M366.672 255.996l113.34 0 0 479.002c0 17.677 14.327 31.998 32 31.998 17.678 0 32-14.326 32-31.998L544.012 255.996l113.321 0c15.141 0 19.219-9.132 9.079-20.396L524.205 77.627c-6.756-7.505-17.718-7.503-24.479 0.01L357.596 235.589C347.448 246.866 351.518 255.996 366.672 255.996z" p-id="2375"></path><path d="M928 640c-17.673 0-32 14.327-32 32l0 224L128 896 128 672c0-17.673-14.327-32-32-32s-32 14.327-32 32l0 256c0 17.673 14.327 32 32 32l832 0c17.673 0 32-14.327 32-32L960 672C960 654.327 945.673 640 928 640z" p-id="2376"></path></svg>