<?xml version="1.0" standalone="no"?><!DOCTYPE svg PUBLIC "-//W3C//DTD SVG 1.1//EN" "http://www.w3.org/Graphics/SVG/1.1/DTD/svg11.dtd"><svg t="1502962320692" class="icon" style="" viewBox="0 0 1024 1024" version="1.1" xmlns="http://www.w3.org/2000/svg" p-id="2361" xmlns:xlink="http://www.w3.org/1999/xlink" width="200" height="200"><defs><style type="text/css"></style></defs><path d="M965.254 170.116h-906.504c-16.172 0-29.238-13.066-29.238-29.238 0-16.152 13.066-29.238 29.238-29.238h906.504c16.172 0 29.238 13.105 29.238 29.238 0 16.172-13.066 29.238-29.238 29.238v0zM672.832 53.163h-321.66c-16.172 0-29.238-13.066-29.238-29.238 0-16.152 13.066-29.258 29.238-29.258h321.66c16.172 0 29.238 13.105 29.238 29.238 0 16.172-13.066 29.258-29.238 29.258v0zM380.41 813.436v-497.109c0-16.152 13.066-29.238 29.238-29.238s29.238 13.105 29.238 29.238v497.109c0 16.172-13.066 29.238-29.238 29.238-16.172 0-29.238-13.066-29.238-29.238v0zM585.098 813.436v-497.109c0-16.152 13.066-29.238 29.238-29.238s29.238 13.105 29.238 29.238v497.109c0 16.172-13.066 29.238-29.238 29.238-16.152 0-29.238-13.066-29.238-29.238v0zM175.723 257.85c16.172 0 29.238 13.105 29.238 29.238v614.082c0 32.285 26.211 58.496 58.477 58.496l497.109-0c32.285 0 58.477-26.211 58.477-58.496l-0-467.871v-146.211c0-16.133 13.066-29.238 29.238-29.238s29.238 13.105 29.238 29.238v146.211l0 497.109c0 48.457-39.277 87.734-87.734 87.734h-555.566c-48.457 0-87.715-39.277-87.715-87.734v-643.32c0-16.133 13.066-29.238 29.238-29.238v0z" p-id="2362"></path></svg>